# xmcd
#
# Track frame offsets:
#	182
#	13365
#	23365
#	41112
#	55230
#	72965
#	86800
#	99822
#	114882
#	127317
#	142115
#	159752
#	172997
#	187995
#	202942
#	214872
#	228702
#	243017
#	261647
#	274917
#	289382
#	302770
#
# Disc length: 4214 seconds
#
# Revision: 1
# Processed by: cddbd v1.5.2PL0 Copyright (c) Steve Scherf et al.
# Submitted via: EZCDAudioConverter 8.2.2.1
#
DISCID=40107416
DTITLE=BANDA BUFFALO - DOSE DUPLA 1992 - 1993 [CD 063015060-2) CHANTECLER
DYEAR=1996
DGENRE=COUNTRY
TTITLE0=GADO NA ESTRADA (BY GILMAR SINISTRO)
TTITLE1=CONTRYPIRA (BY GILMAR SINISTRO)
TTITLE2=ASAS DO VENTO (BY GILMAR SINISTRO)
TTITLE3=VAQUEIRO D'OESTE (BY GILMAR SINISTRO)
TTITLE4=CANTO SOLITÁRIO (BY GILMAR SINISTRO)
TTITLE5=O TREM (BY GILMAR SINISTRO)
TTITLE6=RODAS NA ESTRADA (BY GILMAR SINISTRO)
TTITLE7=QUEIMADA (BY GILMAR SINISTRO)
TTITLE8=GALOPANDO (BY GILMAR SINISTRO)
TTITLE9=CHICO MINEIRO (BY GILMAR SINISTRO)
TTITLE10=ME CHAMA QUE EU VOU (BY GILMAR SINISTRO)
TTITLE11=DO JEITO QUE ELA GOSTA (BY GILMAR SINISTRO)
TTITLE12=DANCEI COM VOCÊ (BY GILMAR SINISTRO)
TTITLE13=CLUBE DOS CARAS DE PAU (BY GILMAR SINISTRO)
TTITLE14=MEU SONHO NÃO ACABOU (BY GILMAR SINISTRO)
TTITLE15=COWBOI DO AMOR (BY GILMAR SINISTRO)
TTITLE16=ME FAZ DE BOBO (BY GILMAR SINISTRO)
TTITLE17=A HORA DO COWBOY DORMIR (BY GILMAR SINISTRO)
TTITLE18=COM OS OLHOS VERMELHOS (BY GILMAR SINISTRO)
TTITLE19=PEGUE SEU SORRISO (BY GILMAR SINISTRO)
TTITLE20=SÓ TEM AMOR QUEM TEM SAUDADE (BY GILMAR SINISTRO)
TTITLE21=POUT-POURRI: FESTA COUNTRY (LUAR DO SERTÃO, DUELLING BANJOS, MORENINH
TTITLE21=A LINDA, DOWN YONDER, BRASILEIRINHO, BOI BARNABÉ, BAT MASTERSON, FEST
TTITLE21=A NA ROÇA (BY GILMAR SINISTRO)
EXTD=
EXTT0=
EXTT1=
EXTT2=
EXTT3=
EXTT4=
EXTT5=
EXTT6=
EXTT7=
EXTT8=
EXTT9=
EXTT10=
EXTT11=
EXTT12=
EXTT13=
EXTT14=
EXTT15=
EXTT16=
EXTT17=
EXTT18=
EXTT19=
EXTT20=
EXTT21=
PLAYORDER=
